<mxfile host="app.diagrams.net" modified="2021-10-07T08:03:05.049Z" agent="5.0 (Macintosh; Intel Mac OS X 10_15_7) AppleWebKit/537.36 (KHTML, like Gecko) Chrome/94.0.4606.61 Safari/537.36" etag="DMqPoZmozPet00Vu3OuR" version="15.0.3" type="github">
  <diagram id="QPJjpV0ahq78SXW-Z95E" name="Page-1">
    <mxGraphModel dx="2066" dy="1154" grid="1" gridSize="10" guides="1" tooltips="1" connect="1" arrows="1" fold="1" page="1" pageScale="1" pageWidth="827" pageHeight="1169" math="0" shadow="0">
      <root>
        <mxCell id="0" />
        <mxCell id="1" parent="0" />
        <mxCell id="KFji_q9-Yh2TTK4zWRBe-23" style="edgeStyle=orthogonalEdgeStyle;rounded=0;orthogonalLoop=1;jettySize=auto;html=1;entryX=0.5;entryY=0;entryDx=0;entryDy=0;fontSize=9;verticalAlign=bottom;" edge="1" parent="1" source="KFji_q9-Yh2TTK4zWRBe-1" target="KFji_q9-Yh2TTK4zWRBe-22">
          <mxGeometry relative="1" as="geometry" />
        </mxCell>
        <mxCell id="KFji_q9-Yh2TTK4zWRBe-1" value="Передача данных на валидацию" style="rounded=1;whiteSpace=wrap;html=1;" vertex="1" parent="1">
          <mxGeometry x="340" y="530" width="120" height="60" as="geometry" />
        </mxCell>
        <mxCell id="KFji_q9-Yh2TTK4zWRBe-2" value="Передача hash функции для подписания сертифицированной электронной подписью" style="rounded=1;whiteSpace=wrap;html=1;fillColor=#d5e8d4;strokeColor=#82b366;" vertex="1" parent="1">
          <mxGeometry x="560" y="130" width="220" height="60" as="geometry" />
        </mxCell>
        <mxCell id="KFji_q9-Yh2TTK4zWRBe-21" style="edgeStyle=orthogonalEdgeStyle;rounded=0;orthogonalLoop=1;jettySize=auto;html=1;entryX=0;entryY=0.5;entryDx=0;entryDy=0;verticalAlign=bottom;" edge="1" parent="1" source="KFji_q9-Yh2TTK4zWRBe-3" target="KFji_q9-Yh2TTK4zWRBe-2">
          <mxGeometry relative="1" as="geometry" />
        </mxCell>
        <mxCell id="KFji_q9-Yh2TTK4zWRBe-3" value="Формирование намерения изменения данных в системе" style="rounded=1;whiteSpace=wrap;html=1;" vertex="1" parent="1">
          <mxGeometry x="320" y="130" width="160" height="60" as="geometry" />
        </mxCell>
        <mxCell id="KFji_q9-Yh2TTK4zWRBe-12" style="edgeStyle=orthogonalEdgeStyle;rounded=0;orthogonalLoop=1;jettySize=auto;html=1;verticalAlign=bottom;" edge="1" parent="1" source="KFji_q9-Yh2TTK4zWRBe-4" target="KFji_q9-Yh2TTK4zWRBe-1">
          <mxGeometry relative="1" as="geometry">
            <mxPoint x="400" y="590" as="targetPoint" />
          </mxGeometry>
        </mxCell>
        <mxCell id="KFji_q9-Yh2TTK4zWRBe-13" value="Подпись валидна" style="edgeLabel;html=1;align=center;verticalAlign=middle;resizable=0;points=[];" vertex="1" connectable="0" parent="KFji_q9-Yh2TTK4zWRBe-12">
          <mxGeometry x="-0.7" y="-1" relative="1" as="geometry">
            <mxPoint x="-59" y="11" as="offset" />
          </mxGeometry>
        </mxCell>
        <mxCell id="KFji_q9-Yh2TTK4zWRBe-28" value="У пользователя есть права на изменения" style="edgeLabel;html=1;align=center;verticalAlign=middle;resizable=0;points=[];" vertex="1" connectable="0" parent="KFji_q9-Yh2TTK4zWRBe-12">
          <mxGeometry x="-0.7" y="-1" relative="1" as="geometry">
            <mxPoint x="-119" y="301" as="offset" />
          </mxGeometry>
        </mxCell>
        <mxCell id="KFji_q9-Yh2TTK4zWRBe-29" value="Данные валидны" style="edgeLabel;html=1;align=center;verticalAlign=middle;resizable=0;points=[];" vertex="1" connectable="0" parent="KFji_q9-Yh2TTK4zWRBe-12">
          <mxGeometry x="-0.7" y="-1" relative="1" as="geometry">
            <mxPoint x="-49" y="471" as="offset" />
          </mxGeometry>
        </mxCell>
        <mxCell id="KFji_q9-Yh2TTK4zWRBe-30" value="Данные не валидны" style="edgeLabel;html=1;align=center;verticalAlign=middle;resizable=0;points=[];" vertex="1" connectable="0" parent="KFji_q9-Yh2TTK4zWRBe-12">
          <mxGeometry x="-0.7" y="-1" relative="1" as="geometry">
            <mxPoint x="141" y="381" as="offset" />
          </mxGeometry>
        </mxCell>
        <mxCell id="KFji_q9-Yh2TTK4zWRBe-39" value="Подпись не валидна" style="edgeLabel;html=1;align=center;verticalAlign=middle;resizable=0;points=[];" vertex="1" connectable="0" parent="KFji_q9-Yh2TTK4zWRBe-12">
          <mxGeometry x="-0.7" y="-1" relative="1" as="geometry">
            <mxPoint x="171" y="-69" as="offset" />
          </mxGeometry>
        </mxCell>
        <mxCell id="KFji_q9-Yh2TTK4zWRBe-40" value="Данные не совпадают" style="edgeLabel;html=1;align=center;verticalAlign=middle;resizable=0;points=[];" vertex="1" connectable="0" parent="KFji_q9-Yh2TTK4zWRBe-12">
          <mxGeometry x="-0.7" y="-1" relative="1" as="geometry">
            <mxPoint x="191" y="-209" as="offset" />
          </mxGeometry>
        </mxCell>
        <mxCell id="KFji_q9-Yh2TTK4zWRBe-41" value="Или истекло время на реализацию&lt;br&gt;намерения" style="edgeLabel;html=1;align=center;verticalAlign=middle;resizable=0;points=[];" vertex="1" connectable="0" parent="KFji_q9-Yh2TTK4zWRBe-12">
          <mxGeometry x="-0.7" y="-1" relative="1" as="geometry">
            <mxPoint x="181" y="-179" as="offset" />
          </mxGeometry>
        </mxCell>
        <mxCell id="KFji_q9-Yh2TTK4zWRBe-42" value="Данные совпадают" style="edgeLabel;html=1;align=center;verticalAlign=middle;resizable=0;points=[];" vertex="1" connectable="0" parent="KFji_q9-Yh2TTK4zWRBe-12">
          <mxGeometry x="-0.7" y="-1" relative="1" as="geometry">
            <mxPoint x="-59" y="-129" as="offset" />
          </mxGeometry>
        </mxCell>
        <mxCell id="KFji_q9-Yh2TTK4zWRBe-36" style="edgeStyle=orthogonalEdgeStyle;rounded=0;orthogonalLoop=1;jettySize=auto;html=1;fontSize=10;verticalAlign=bottom;" edge="1" parent="1" source="KFji_q9-Yh2TTK4zWRBe-4" target="KFji_q9-Yh2TTK4zWRBe-19">
          <mxGeometry relative="1" as="geometry">
            <Array as="points">
              <mxPoint x="680" y="420" />
            </Array>
          </mxGeometry>
        </mxCell>
        <mxCell id="KFji_q9-Yh2TTK4zWRBe-4" value="Проверка подписи&lt;br&gt;HASH функции" style="rhombus;whiteSpace=wrap;html=1;" vertex="1" parent="1">
          <mxGeometry x="325" y="370" width="150" height="100" as="geometry" />
        </mxCell>
        <mxCell id="KFji_q9-Yh2TTK4zWRBe-20" style="edgeStyle=orthogonalEdgeStyle;rounded=0;orthogonalLoop=1;jettySize=auto;html=1;entryX=0;entryY=0.5;entryDx=0;entryDy=0;verticalAlign=bottom;" edge="1" parent="1" source="KFji_q9-Yh2TTK4zWRBe-5" target="KFji_q9-Yh2TTK4zWRBe-3">
          <mxGeometry relative="1" as="geometry" />
        </mxCell>
        <mxCell id="KFji_q9-Yh2TTK4zWRBe-5" value="Инициализация запроса к API с формированием намерения на изменения данных в системе" style="rounded=1;whiteSpace=wrap;html=1;fillColor=#dae8fc;strokeColor=#6c8ebf;" vertex="1" parent="1">
          <mxGeometry x="40" y="130" width="200" height="60" as="geometry" />
        </mxCell>
        <mxCell id="KFji_q9-Yh2TTK4zWRBe-26" style="edgeStyle=orthogonalEdgeStyle;rounded=0;orthogonalLoop=1;jettySize=auto;html=1;entryX=0;entryY=0.5;entryDx=0;entryDy=0;fontSize=10;verticalAlign=bottom;" edge="1" parent="1" source="KFji_q9-Yh2TTK4zWRBe-8" target="KFji_q9-Yh2TTK4zWRBe-25">
          <mxGeometry relative="1" as="geometry" />
        </mxCell>
        <mxCell id="KFji_q9-Yh2TTK4zWRBe-8" value="Инициализация запроса на реализацию намерения изменения данных в системе&amp;nbsp;" style="rounded=1;whiteSpace=wrap;html=1;fillColor=#dae8fc;strokeColor=#6c8ebf;" vertex="1" parent="1">
          <mxGeometry x="40" y="250" width="200" height="60" as="geometry" />
        </mxCell>
        <mxCell id="KFji_q9-Yh2TTK4zWRBe-17" style="edgeStyle=orthogonalEdgeStyle;rounded=0;orthogonalLoop=1;jettySize=auto;html=1;entryX=0.5;entryY=0;entryDx=0;entryDy=0;verticalAlign=bottom;" edge="1" parent="1" source="KFji_q9-Yh2TTK4zWRBe-14" target="KFji_q9-Yh2TTK4zWRBe-16">
          <mxGeometry relative="1" as="geometry" />
        </mxCell>
        <mxCell id="KFji_q9-Yh2TTK4zWRBe-18" style="edgeStyle=orthogonalEdgeStyle;rounded=0;orthogonalLoop=1;jettySize=auto;html=1;verticalAlign=bottom;entryX=0;entryY=0.5;entryDx=0;entryDy=0;" edge="1" parent="1" source="KFji_q9-Yh2TTK4zWRBe-14" target="KFji_q9-Yh2TTK4zWRBe-19">
          <mxGeometry relative="1" as="geometry">
            <mxPoint x="555" y="870" as="targetPoint" />
          </mxGeometry>
        </mxCell>
        <mxCell id="KFji_q9-Yh2TTK4zWRBe-14" value="Валидация данных" style="rhombus;whiteSpace=wrap;html=1;" vertex="1" parent="1">
          <mxGeometry x="325" y="820" width="150" height="100" as="geometry" />
        </mxCell>
        <mxCell id="KFji_q9-Yh2TTK4zWRBe-16" value="Выполнение запроса" style="rounded=1;whiteSpace=wrap;html=1;fillColor=#d5e8d4;strokeColor=#82b366;" vertex="1" parent="1">
          <mxGeometry x="340" y="980" width="120" height="60" as="geometry" />
        </mxCell>
        <mxCell id="KFji_q9-Yh2TTK4zWRBe-19" value="Возврат ошибки" style="rounded=1;whiteSpace=wrap;html=1;fillColor=#fff2cc;strokeColor=#d6b656;" vertex="1" parent="1">
          <mxGeometry x="620" y="840" width="120" height="60" as="geometry" />
        </mxCell>
        <mxCell id="KFji_q9-Yh2TTK4zWRBe-24" style="edgeStyle=orthogonalEdgeStyle;rounded=0;orthogonalLoop=1;jettySize=auto;html=1;entryX=0.5;entryY=0;entryDx=0;entryDy=0;fontSize=9;verticalAlign=bottom;" edge="1" parent="1" source="KFji_q9-Yh2TTK4zWRBe-22" target="KFji_q9-Yh2TTK4zWRBe-14">
          <mxGeometry relative="1" as="geometry" />
        </mxCell>
        <mxCell id="KFji_q9-Yh2TTK4zWRBe-32" style="edgeStyle=orthogonalEdgeStyle;rounded=0;orthogonalLoop=1;jettySize=auto;html=1;fontSize=10;verticalAlign=bottom;" edge="1" parent="1" source="KFji_q9-Yh2TTK4zWRBe-22" target="KFji_q9-Yh2TTK4zWRBe-19">
          <mxGeometry relative="1" as="geometry">
            <Array as="points">
              <mxPoint x="650" y="705" />
            </Array>
          </mxGeometry>
        </mxCell>
        <mxCell id="KFji_q9-Yh2TTK4zWRBe-38" value="У пользователя нет прав&lt;br&gt;на внесение изменений" style="edgeLabel;html=1;align=center;verticalAlign=middle;resizable=0;points=[];fontSize=10;" vertex="1" connectable="0" parent="KFji_q9-Yh2TTK4zWRBe-32">
          <mxGeometry x="0.6098" y="2" relative="1" as="geometry">
            <mxPoint x="-92" y="-101" as="offset" />
          </mxGeometry>
        </mxCell>
        <mxCell id="KFji_q9-Yh2TTK4zWRBe-22" value="Проверка наличия прав пользователя на редактирование данных в системе" style="rhombus;whiteSpace=wrap;html=1;fontSize=9;" vertex="1" parent="1">
          <mxGeometry x="320" y="650" width="160" height="110" as="geometry" />
        </mxCell>
        <mxCell id="KFji_q9-Yh2TTK4zWRBe-27" style="edgeStyle=orthogonalEdgeStyle;rounded=0;orthogonalLoop=1;jettySize=auto;html=1;fontSize=10;verticalAlign=bottom;" edge="1" parent="1" source="KFji_q9-Yh2TTK4zWRBe-25" target="KFji_q9-Yh2TTK4zWRBe-4">
          <mxGeometry relative="1" as="geometry" />
        </mxCell>
        <mxCell id="KFji_q9-Yh2TTK4zWRBe-37" style="edgeStyle=orthogonalEdgeStyle;rounded=0;orthogonalLoop=1;jettySize=auto;html=1;entryX=0.75;entryY=0;entryDx=0;entryDy=0;fontSize=10;verticalAlign=bottom;" edge="1" parent="1" source="KFji_q9-Yh2TTK4zWRBe-25" target="KFji_q9-Yh2TTK4zWRBe-19">
          <mxGeometry relative="1" as="geometry" />
        </mxCell>
        <mxCell id="KFji_q9-Yh2TTK4zWRBe-25" value="Проверка соответствия данных запросов намерения и реализации" style="rhombus;whiteSpace=wrap;html=1;fontSize=10;" vertex="1" parent="1">
          <mxGeometry x="325" y="230" width="150" height="100" as="geometry" />
        </mxCell>
      </root>
    </mxGraphModel>
  </diagram>
</mxfile>
